<?xml version="1.0" standalone="no"?>
<!DOCTYPE svg PUBLIC "-//W3C//DTD SVG 20010904//EN"
 "http://www.w3.org/TR/2001/REC-SVG-20010904/DTD/svg10.dtd">
<svg version="1.0" xmlns="http://www.w3.org/2000/svg"
 width="811.000000pt" height="811.000000pt" viewBox="0 0 811.000000 811.000000"
 preserveAspectRatio="xMidYMid meet">
<metadata>
Created by potrace 1.11, written by Peter Selinger 2001-2013
</metadata>
<g transform="translate(0.000000,811.000000) scale(0.100000,-0.100000)"
fill="#000000" stroke="none">
<path d="M541 8100 c-9 -7 -8 -1260 1 -1261 5 -1 113 -2 240 -3 l233 -1 0
-1908 c0 -1050 -2 -1912 -5 -1916 -3 -4 -111 -7 -240 -6 l-235 0 0 -722 c0
-476 3 -724 10 -726 5 -2 515 -3 1133 -3 l1122 1 0 -52 0 -53 -240 0 -240 0 0
-725 0 -725 2625 0 2625 0 0 1105 0 1105 -720 0 -720 0 0 -380 0 -380 -935 0
-935 0 0 53 0 52 762 0 763 0 0 1102 c0 730 -3 1104 -10 1106 -9 3 -1380 1
-1415 -2 -14 -1 -15 -47 -15 -372 0 -241 -3 -373 -10 -378 -5 -4 -23 -7 -40
-7 l-30 1 -3 1138 -2 1137 255 0 255 0 0 635 0 635 -1147 2 -1148 3 0 140 0
140 250 1 c138 1 252 2 255 3 7 1 7 1261 0 1262 -17 4 -2433 3 -2439 -1z
m2259 -3958 l0 -1137 -157 1 c-87 1 -160 2 -163 3 -4 1 -5 2260 -1 2269 0 1
73 2 161 2 l160 0 0 -1138z"/>
</g>
</svg>
